<svg width="49" height="49" viewBox="0 0 49 49" fill="none" xmlns="http://www.w3.org/2000/svg">
<g clip-path="url(#clip0_131_154)">
<path d="M40.6716 9H8.32845C5.93791 9 4 11.3672 4 14.2874V40.7126C4 43.6328 5.93791 46 8.32845 46H40.6716C43.0621 46 45 43.6328 45 40.7126V14.2874C45 11.3672 43.0621 9 40.6716 9Z" fill="white"/>
<path d="M40.6812 47.3666H8.31878C6.97927 47.3651 5.69498 46.7075 4.7478 45.5383C3.80062 44.3691 3.26794 42.7838 3.26666 41.1303V14.403C3.26794 12.7495 3.80062 11.1642 4.7478 9.99495C5.69498 8.82575 6.97927 8.1682 8.31878 8.16663H40.6812C42.0207 8.1682 43.305 8.82575 44.2522 9.99495C45.1994 11.1642 45.7321 12.7495 45.7333 14.403V41.1303C45.7321 42.7838 45.1994 44.3691 44.2522 45.5383C43.305 46.7075 42.0207 47.3651 40.6812 47.3666ZM8.31878 9.94844C7.3621 9.95002 6.44496 10.4198 5.76848 11.2549C5.092 12.0899 4.7114 13.2221 4.71013 14.403V41.1303C4.7114 42.3112 5.092 43.4433 5.76848 44.2784C6.44496 45.1134 7.3621 45.5832 8.31878 45.5848H40.6812C41.6379 45.5832 42.555 45.1134 43.2315 44.2784C43.908 43.4433 44.2886 42.3112 44.2899 41.1303V14.403C44.2886 13.2221 43.908 12.0899 43.2315 11.2549C42.555 10.4198 41.6379 9.95002 40.6812 9.94844H8.31878Z" fill="#202020"/>
<path d="M7.84001 13.0144C8.33254 13.0144 8.73181 12.6152 8.73181 12.1226C8.73181 11.6301 8.33254 11.2308 7.84001 11.2308C7.34748 11.2308 6.94821 11.6301 6.94821 12.1226C6.94821 12.6152 7.34748 13.0144 7.84001 13.0144Z" fill="#FF3839"/>
<path d="M10.8633 13.0144C11.3558 13.0144 11.7551 12.6152 11.7551 12.1226C11.7551 11.6301 11.3558 11.2308 10.8633 11.2308C10.3708 11.2308 9.9715 11.6301 9.9715 12.1226C9.9715 12.6152 10.3708 13.0144 10.8633 13.0144Z" fill="#FF3839"/>
<path d="M13.8915 13.0144C14.384 13.0144 14.7833 12.6152 14.7833 12.1226C14.7833 11.6301 14.384 11.2308 13.8915 11.2308C13.399 11.2308 12.9997 11.6301 12.9997 12.1226C12.9997 12.6152 13.399 13.0144 13.8915 13.0144Z" fill="#FF3839"/>
<path d="M41.0865 12.8576H32.83C32.6351 12.8576 32.4481 12.7801 32.3103 12.6423C32.1724 12.5045 32.095 12.3175 32.095 12.1226C32.095 11.9276 32.1724 11.7407 32.3103 11.6029C32.4481 11.465 32.6351 11.3876 32.83 11.3876H41.0865C41.2814 11.3876 41.4684 11.465 41.6062 11.6029C41.7441 11.7407 41.8215 11.9276 41.8215 12.1226C41.8215 12.3175 41.7441 12.5045 41.6062 12.6423C41.4684 12.7801 41.2814 12.8576 41.0865 12.8576Z" fill="#FF3839"/>
<path d="M21.4816 36.3983C21.3564 36.3981 21.2334 36.366 21.1241 36.3049C21.0148 36.2439 20.923 36.1559 20.8572 36.0494C20.7915 35.9429 20.754 35.8214 20.7483 35.6964C20.7427 35.5713 20.7691 35.4469 20.825 35.335L26.8177 23.2761C26.9041 23.1013 27.0564 22.968 27.2411 22.9055C27.4258 22.843 27.6278 22.8564 27.8026 22.9429C27.9774 23.0293 28.1107 23.1816 28.1732 23.3663C28.2357 23.551 28.2222 23.753 28.1358 23.9278L22.1382 35.9916C22.0773 36.1136 21.9836 36.2163 21.8676 36.2881C21.7516 36.3599 21.618 36.3981 21.4816 36.3983Z" fill="#FF3839"/>
<path d="M30.7916 33.9924C30.6701 33.9937 30.5502 33.9644 30.4431 33.907C30.3361 33.8496 30.2452 33.766 30.1791 33.6641C30.1256 33.5843 30.0883 33.4948 30.0694 33.4006C30.0505 33.3064 30.0504 33.2094 30.0691 33.1152C30.0877 33.021 30.1248 32.9314 30.1782 32.8515C30.2315 32.7716 30.3001 32.7031 30.38 32.6498L35.035 29.553L30.6789 26.6571C30.5165 26.5492 30.4035 26.3812 30.3649 26.1901C30.3263 25.9989 30.3652 25.8003 30.4731 25.6379C30.581 25.4754 30.7489 25.3625 30.9401 25.3239C31.1312 25.2853 31.3299 25.3242 31.4923 25.4321L36.75 28.9405C36.8511 29.0075 36.934 29.0985 36.9914 29.2054C37.0487 29.3123 37.0787 29.4317 37.0787 29.553C37.0787 29.6742 37.0487 29.7937 36.9914 29.9005C36.934 30.0074 36.8511 30.0984 36.75 30.1655L31.1983 33.8699C31.0775 33.9493 30.9362 33.9919 30.7916 33.9924Z" fill="#FF3839"/>
<path d="M18.2084 33.9924C18.0638 33.9919 17.9225 33.9493 17.8017 33.8699L12.25 30.1655C12.1489 30.0984 12.066 30.0074 12.0087 29.9005C11.9513 29.7937 11.9213 29.6742 11.9213 29.553C11.9213 29.4317 11.9513 29.3123 12.0087 29.2054C12.066 29.0985 12.1489 29.0075 12.25 28.9405L17.5224 25.4321C17.6849 25.3242 17.8835 25.2853 18.0746 25.3239C18.2658 25.3625 18.4337 25.4754 18.5416 25.6379C18.6495 25.8003 18.6884 25.9989 18.6498 26.1901C18.6112 26.3812 18.4983 26.5492 18.3358 26.6571L13.965 29.553L18.62 32.6498C18.6999 32.7031 18.7685 32.7716 18.8219 32.8515C18.8752 32.9314 18.9123 33.021 18.931 33.1152C18.9496 33.2094 18.9495 33.3064 18.9306 33.4006C18.9117 33.4948 18.8745 33.5843 18.8209 33.6641C18.7548 33.766 18.664 33.8496 18.5569 33.907C18.4498 33.9644 18.3299 33.9937 18.2084 33.9924Z" fill="#FF3839"/>
<path d="M45.3838 14.1267H3.6113V15.5967H45.3838V14.1267Z" fill="#202020"/>
</g>
<defs>
<clipPath id="clip0_131_154">
<rect width="49" height="49" fill="white"/>
</clipPath>
</defs>
</svg>
