<svg xmlns="http://www.w3.org/2000/svg" aria-hidden="true" style="position:absolute;width:0;height:0;overflow:hidden">
  <defs>
    <symbol id="icon-instagram" viewBox="0 0 32 32">
      <path d="M31.969 9.408c-.075-1.7-.35-2.869-.744-3.882a7.803 7.803 0 0 0-1.85-2.838A7.867 7.867 0 0 0 26.543.844C25.524.45 24.361.175 22.661.1 20.948.019 20.404 0 16.06 0s-4.888.019-6.595.094c-1.7.075-2.869.35-3.882.744a7.803 7.803 0 0 0-2.838 1.85A7.867 7.867 0 0 0 .901 5.52C.507 6.539.232 7.702.157 9.402c-.081 1.713-.1 2.257-.1 6.601s.019 4.888.094 6.595c.075 1.7.35 2.869.744 3.882a7.895 7.895 0 0 0 1.85 2.838 7.867 7.867 0 0 0 2.832 1.844c1.019.394 2.182.669 3.882.744 1.706.075 2.25.094 6.595.094s4.888-.018 6.595-.094c1.7-.075 2.869-.35 3.882-.744a8.181 8.181 0 0 0 4.682-4.682c.394-1.019.669-2.182.744-3.882.075-1.707.094-2.251.094-6.595s-.006-4.888-.081-6.595zm-2.882 13.065c-.069 1.563-.331 2.407-.55 2.969a5.307 5.307 0 0 1-3.038 3.038c-.563.219-1.413.481-2.969.55-1.688.075-2.194.094-6.464.094s-4.782-.018-6.464-.094c-1.563-.069-2.407-.331-2.969-.55a4.926 4.926 0 0 1-1.838-1.194 4.974 4.974 0 0 1-1.194-1.838c-.219-.563-.481-1.413-.55-2.969-.075-1.688-.094-2.194-.094-6.464s.019-4.782.094-6.464c.069-1.563.331-2.407.55-2.969a4.868 4.868 0 0 1 1.2-1.838A4.974 4.974 0 0 1 6.639 3.55c.563-.219 1.413-.481 2.969-.55 1.688-.075 2.194-.094 6.464-.094 4.276 0 4.782.019 6.464.094 1.563.069 2.407.331 2.969.55a4.914 4.914 0 0 1 1.838 1.194 4.974 4.974 0 0 1 1.194 1.838c.219.563.481 1.413.55 2.969.075 1.688.094 2.194.094 6.464s-.019 4.77-.094 6.457z"/>
      <path d="M16.059 7.782c-4.538 0-8.22 3.682-8.22 8.22s3.682 8.22 8.22 8.22 8.22-3.682 8.22-8.22-3.682-8.22-8.22-8.22zm0 13.553a5.333 5.333 0 0 1 0-10.664 5.333 5.333 0 0 1 0 10.664zM26.524 7.457a1.919 1.919 0 1 1-3.838 0 1.919 1.919 0 0 1 3.838 0z"/>
    </symbol>
    <symbol id="icon-twitter" viewBox="0 0 34 32">
      <path d="M29.867 4.862c-.952.418-1.966.694-3.024.829a5.221 5.221 0 0 0 2.309-2.901 10.466 10.466 0 0 1-3.328 1.27 5.246 5.246 0 0 0-9.079 3.589c0 .416.035.816.122 1.197-4.363-.213-8.224-2.304-10.818-5.49a5.283 5.283 0 0 0-.718 2.653c0 1.818.936 3.429 2.331 4.362a5.19 5.19 0 0 1-2.371-.646v.058a5.273 5.273 0 0 0 4.205 5.157 5.23 5.23 0 0 1-1.376.173 4.61 4.61 0 0 1-.994-.09c.68 2.078 2.61 3.606 4.904 3.656a10.545 10.545 0 0 1-6.507 2.238 9.8 9.8 0 0 1-1.256-.072 14.777 14.777 0 0 0 8.051 2.355c9.658 0 14.938-8 14.938-14.934a13.6 13.6 0 0 0-.019-.678 10.44 10.44 0 0 0 2.63-2.725z"/>
    </symbol>
    <symbol id="icon-facebook" viewBox="0 0 32 32">
      <path d="M21.329 5.313h2.921V.225C23.746.156 22.013 0 19.994 0c-4.212 0-7.097 2.649-7.097 7.519V12H8.249v5.688h4.648V32h5.699V17.689h4.46l.708-5.688h-5.169V8.082c.001-1.644.444-2.769 2.735-2.769z"/>
    </symbol>
    <symbol id="icon-linkedin" viewBox="0 0 32 32">
      <path d="M31.992 32v-.001H32V20.263c0-5.741-1.236-10.164-7.948-10.164-3.227 0-5.392 1.771-6.276 3.449h-.093v-2.913h-6.364v21.364h6.627V21.42c0-2.785.528-5.479 3.977-5.479 3.399 0 3.449 3.179 3.449 5.657v10.401h6.62zM.528 10.636h6.635V32H.528V10.636zM3.843 0C1.722 0 0 1.721 0 3.843s1.721 3.879 3.843 3.879c2.121 0 3.843-1.757 3.843-3.879A3.846 3.846 0 0 0 3.843 0z"/>
    </symbol>
    <symbol id="icon-location" viewBox="0 0 32 32">
      <path d="M14.363 1.789c-4.251.547-7.695 2.907-9.497 6.508-1.101 2.201-1.567 5.069-1.239 7.649.425 3.339 2.091 6.785 4.817 9.963 1.319 1.539 2.283 2.472 3.16 3.059a7.857 7.857 0 0 0 4.395 1.33 7.898 7.898 0 0 0 3.273-.705l-.05.02c.976-.433 1.603-.888 2.663-1.929 3.381-3.32 5.572-7.02 6.301-10.641.219-1.089.265-1.593.261-2.883-.004-1.307-.061-1.845-.317-3.003-.801-3.623-3.049-6.513-6.324-8.133-1.221-.604-2.768-1.059-4.205-1.236-.807-.099-2.467-.099-3.239.001zm2.997 1.95c1.348.161 2.574.547 3.687 1.12l-.061-.028c2.595 1.285 4.355 3.459 5.115 6.316.296 1.111.373 1.744.373 3.067.001 1.348-.08 1.997-.399 3.2-.704 2.656-2.303 5.373-4.675 7.947-1.444 1.567-2.109 2.1-3.168 2.536-.811.335-1.151.395-2.233.396-.916 0-1.025-.011-1.52-.148a6.715 6.715 0 0 1-2.057-1.004l.02.013c-.452-.341-1.881-1.779-2.501-2.516-2.412-2.865-3.784-5.581-4.296-8.504-.176-1.007-.176-2.836.001-3.84.477-2.719 1.604-4.727 3.533-6.304 2.171-1.773 5.115-2.583 8.18-2.251zm-1.911 4.905c-1.68.181-3.129 1.153-3.976 2.668-.23.428-.409.925-.511 1.449l-.005.033c-.133.664-.087 1.731.105 2.376a5.192 5.192 0 0 0 2.641 3.162l.03.014c.817.403 1.269.503 2.267.503s1.449-.1 2.267-.503a5.185 5.185 0 0 0 2.66-3.139l.009-.037c.192-.651.24-1.715.107-2.373-.265-1.312-.885-2.315-1.949-3.156-.932-.737-2.38-1.133-3.644-.997zm1.526 2.076c.652.201 1.383.792 1.784 1.444.063.1.179.375.257.609.121.359.143.515.141.987-.004.945-.303 1.627-1.004 2.292-.613.584-1.297.855-2.153.855s-1.54-.271-2.153-.855a3.274 3.274 0 0 1-.885-1.362l-.007-.023c-.156-.495-.153-1.329.005-1.84a3.276 3.276 0 0 1 2.474-2.211l.021-.003c.375-.069 1.119-.016 1.52.108z"/>
    </symbol>
    <symbol id="icon-call" viewBox="0 0 32 32">
      <path d="M6.48 1.792c-.877.196-1.656.647-2.473 1.433-1.264 1.217-1.949 2.532-2.221 4.269-.072.46-.087.791-.064 1.545.056 1.899.461 3.377 1.512 5.508 3.104 6.291 10.359 13.025 16.249 15.083 2.103.733 4.261.867 5.985.368 1.9-.549 3.521-1.904 4.343-3.625a3.95 3.95 0 0 0 .421-1.452l.001-.016c.131-1.145-.219-2.177-.961-2.852-.163-.147-1.36-1.023-2.661-1.947-3.105-2.204-3.495-2.4-4.629-2.333-.856.049-1.505.423-2.6 1.492l-.72.703-.197-.104c-.351-.185-1.407-1.012-2.117-1.657-1.725-1.569-3.631-3.672-4.236-4.675l-.121-.203.636-.677c.828-.884 1.043-1.163 1.293-1.687.436-.905.387-1.748-.165-2.805-.172-.332-2.587-3.799-3.556-5.105-.415-.56-.947-.944-1.661-1.2-.408-.147-1.528-.18-2.056-.063zm1.451 1.949c.167.054.311.135.435.239l-.002-.002c.116.097.929 1.193 1.809 2.433 1.869 2.636 1.912 2.701 2.02 3.068.147.504-.017.785-1.149 1.975-.928.975-.991 1.089-.991 1.825 0 .541.007.573.201.964.687 1.373 3.691 4.623 5.932 6.415 1.299 1.039 2.072 1.384 2.823 1.263.464-.076.688-.231 1.572-1.085 1.217-1.177 1.52-1.303 2.243-.932.343.176 4.848 3.34 5.135 3.605.357.331.444 1.141.191 1.759-.439 1.067-1.347 2.016-2.416 2.525-2.092.996-4.711.639-7.973-1.088-4.269-2.261-9.111-6.887-11.787-11.265C3.87 12 3.203 9.151 3.957 6.827c.505-1.559 1.907-2.952 3.164-3.147.283-.044.451-.031.811.061z"/>
    </symbol>
    <symbol id="icon-sms" viewBox="0 0 32 32">
      <path d="M8.247 3.741c-3.271.288-5.485 2.053-6.245 4.977-.288 1.109-.295 1.277-.295 7.272 0 3.445.02 5.703.055 5.984.131 1.085.353 1.884.747 2.68 1.064 2.159 3.021 3.369 5.828 3.608.939.079 14.389.079 15.328 0 2.807-.239 4.764-1.449 5.828-3.608.393-.796.616-1.595.747-2.68.035-.281.055-2.539.055-5.984 0-5.995-.007-6.163-.295-7.272-.675-2.596-2.484-4.276-5.195-4.824-.307-.061-.7-.117-1.099-.155l-.052-.004c-.784-.068-14.632-.063-15.407.005zM23.76 5.712c1.017.124 2.068.499 2.664.948 1.019.769 1.572 1.779 1.848 3.367.083.483.129 10.075.053 11.172-.107 1.536-.397 2.443-1.072 3.341-.7.933-1.952 1.56-3.493 1.748-.669.081-14.851.081-15.52 0-1.127-.137-2.221-.56-2.895-1.119-.573-.475-1.051-1.193-1.315-1.977-.208-.621-.295-1.104-.356-1.993-.076-1.097-.029-10.689.053-11.172.268-1.543.775-2.504 1.724-3.268.62-.5 1.715-.917 2.735-1.045.572-.071 14.988-.072 15.573-.001zM8.872 11.107a1.96 1.96 0 0 0-.491.556c-.092.175-.075.592.032.777.095.165 4.371 3.628 4.891 3.96.692.443 1.449.664 2.415.705 1.263.053 2.219-.193 3.108-.804.617-.424 4.677-3.717 4.76-3.861a.951.951 0 0 0 .093-.415v-.011.001c0-.212-.035-.311-.179-.513-.327-.46-.645-.6-1.097-.479-.071.019-1.161.859-2.423 1.867-1.261 1.007-2.415 1.889-2.564 1.96a3.23 3.23 0 0 1-1.409.297c-.747 0-1.271-.151-1.797-.516-.119-.083-1.175-.92-2.348-1.861s-2.192-1.727-2.264-1.747c-.271-.072-.561-.039-.727.084z"/>
    </symbol>
    <symbol id="icon-untitled" viewBox="0 0 42 32">
      <path d="M13.64 30.073H.584L12.872 1.017h8.32L13.64 30.073zm20.736 0H21.32L33.608 1.017h8.32l-7.552 29.056z"/>
    </symbol>
    <symbol id="icon-Star-1" viewBox="0 0 34 32">
      <path d="m16.713.23 4.478 10.767 11.624.932-8.856 7.586 2.706 11.343-9.952-6.078-9.952 6.078 2.706-11.343-8.856-7.586 11.624-.932L16.713.23z"/>
    </symbol>
    <symbol id="icon-seo" viewBox="0 0 32 32">
      <path fill="#fff" d="M22.902 20.272a11.44 11.44 0 0 1 3.657 8.227 1.176 1.176 0 0 1-.674 1.06 1.176 1.176 0 0 1-1.245-.16l-4.48-3.798z" style="fill:var(--color1, #fff)"/>
      <path fill="#ff3839" d="M25.37 30.163a1.638 1.638 0 0 1-1.072-.403l-4.458-3.811.64-.73 4.442 3.814a.686.686 0 0 0 .744.107.695.695 0 0 0 .402-.635 10.947 10.947 0 0 0-3.495-7.881l.64-.704a11.91 11.91 0 0 1 3.814 8.56 1.64 1.64 0 0 1-.96 1.514 1.692 1.692 0 0 1-.698.17z" style="fill:var(--color2, #ff3839)"/>
      <path fill="#fff" d="M8.64 20.272a11.55 11.55 0 0 0-3.2 5.248 11.326 11.326 0 0 0-.432 2.979 1.176 1.176 0 0 0 .674 1.06 1.176 1.176 0 0 0 1.245-.16l4.461-3.798z" style="fill:var(--color1, #fff)"/>
      <path fill="#ff3839" d="M6.186 30.163c-.244 0-.486-.053-.707-.157a1.628 1.628 0 0 1-.96-1.513 11.895 11.895 0 0 1 3.802-8.573l.656.704a10.975 10.975 0 0 0-3.078 5.027 10.857 10.857 0 0 0-.416 2.854.69.69 0 0 0 1.143.528l4.451-3.814.64.73-4.458 3.811a1.638 1.638 0 0 1-1.072.403z" style="fill:var(--color2, #ff3839)"/>
      <path fill="#fff" d="M19.443 25.6h-7.331a3.02 3.02 0 0 1-2.992-2.624l-.445-3.43a22.622 22.622 0 0 1 3.709-15.805c.115-.166.234-.32.352-.496l1.219-1.667a2.237 2.237 0 0 1 1.823-.937 2.24 2.24 0 0 1 1.823.937l1.219 1.667c.118.163.237.32.352.496a22.659 22.659 0 0 1 3.709 15.805l-.448 3.414a3.013 3.013 0 0 1-2.988 2.64z" style="fill:var(--color1, #fff)"/>
      <path fill="#202020" d="M19.443 26.064h-7.331a3.503 3.503 0 0 1-3.472-3.043l-.448-3.414A23.063 23.063 0 0 1 12.348 2.96l1.216-1.68a2.736 2.736 0 0 1 3.451-.826c.384.195.717.478.971.826l1.213 1.68c.122.166.24.336.358.506a23.065 23.065 0 0 1 3.802 16.141l-.448 3.414a3.5 3.5 0 0 1-3.469 3.043zM15.776 1.13a1.745 1.745 0 0 0-1.433.73l-1.222 1.661-.346.486a22.095 22.095 0 0 0-3.622 15.475l.448 3.414a2.542 2.542 0 0 0 2.515 2.208h7.328a2.56 2.56 0 0 0 2.515-2.208l.442-3.414a22.097 22.097 0 0 0-3.626-15.469c-.112-.163-.227-.32-.342-.486L17.214 1.86a1.762 1.762 0 0 0-1.437-.73z" style="fill:var(--color3, #202020)"/>
      <path fill="#ff3839" d="M15.776 15.843a4.318 4.318 0 0 1-3.055-7.366 4.315 4.315 0 0 1 6.642.647c.475.709.729 1.543.731 2.397 0 1.145-.455 2.244-1.264 3.055s-1.907 1.267-3.053 1.268zm0-7.68a3.356 3.356 0 0 0-2.373 5.731 3.352 3.352 0 0 0 5.164-.508 3.364 3.364 0 0 0 .566-1.865 3.352 3.352 0 0 0-3.356-3.351v-.006zm0 22.349a.48.48 0 0 1-.48-.48v-3.104a.48.48 0 0 1 .96 0v3.104a.48.48 0 0 1-.48.48zm-2.24 1.197a.48.48 0 0 1-.48-.48V28.48a.48.48 0 0 1 .96 0v2.758a.476.476 0 0 1-.48.47zm4.48 0a.48.48 0 0 1-.48-.48V28.48a.48.48 0 0 1 .96 0v2.758a.48.48 0 0 1-.48.47z" style="fill:var(--color2, #ff3839)"/>
    </symbol>
    <symbol id="icon-development" viewBox="0 0 32 32">
      <path fill="#fff" d="M26.561 5.878H5.439c-1.561 0-2.827 1.546-2.827 3.453v17.257c0 1.907 1.266 3.453 2.827 3.453h21.122c1.561 0 2.827-1.546 2.827-3.453V9.331c0-1.907-1.266-3.453-2.827-3.453z" style="fill:var(--color1, #fff)"/>
      <path fill="#202020" d="M26.567 30.933H5.432c-.875-.001-1.713-.43-2.332-1.194s-.966-1.799-.967-2.879V9.405c.001-1.08.349-2.115.967-2.879s1.457-1.193 2.332-1.194h21.135c.875.001 1.713.43 2.332 1.194s.966 1.799.967 2.879V26.86c-.001 1.08-.349 2.115-.967 2.879s-1.457 1.193-2.332 1.194zM5.433 6.497c-.625.001-1.224.308-1.665.853s-.69 1.285-.691 2.056v17.455c.001.771.249 1.511.691 2.056s1.041.852 1.665.853h21.135c.625-.001 1.224-.308 1.666-.853s.69-1.285.691-2.056V9.406c-.001-.771-.249-1.511-.691-2.056s-1.041-.852-1.666-.853H5.433z" style="fill:var(--color3, #202020)"/>
      <path fill="#ff3839" d="M5.12 8.499a.582.582 0 1 0 0-1.164.582.582 0 0 0 0 1.164zm1.974 0a.582.582 0 1 0 0-1.164.582.582 0 0 0 0 1.164zm1.978 0a.582.582 0 1 0 0-1.164.582.582 0 0 0 0 1.164zm17.76-.102H21.44a.48.48 0 0 1 0-.96h5.392a.48.48 0 0 1 0 .96zM14.029 23.77a.474.474 0 0 1-.407-.228.485.485 0 0 1-.021-.467l3.914-7.875a.48.48 0 1 1 .861.426l-3.917 7.878a.48.48 0 0 1-.429.266zm6.08-1.571a.467.467 0 0 1-.4-.215.466.466 0 0 1-.001-.53.488.488 0 0 1 .132-.132l3.04-2.022-2.845-1.891a.478.478 0 0 1-.134-.666.478.478 0 0 1 .666-.134l3.434 2.291a.486.486 0 0 1 .215.4.487.487 0 0 1-.215.4l-3.626 2.419a.483.483 0 0 1-.266.08zm-8.218 0a.485.485 0 0 1-.266-.08L7.999 19.7a.486.486 0 0 1-.215-.4.487.487 0 0 1 .215-.4l3.443-2.291a.484.484 0 0 1 .666.134.484.484 0 0 1-.134.666L9.12 19.3l3.04 2.022a.488.488 0 0 1 .203.304.485.485 0 0 1-.244.517.464.464 0 0 1-.228.056z" style="fill:var(--color2, #ff3839)"/>
      <path fill="#202020" d="M29.638 9.226H2.358v.96h27.28v-.96z" style="fill:var(--color3, #202020)"/>
    </symbol>
    <symbol id="icon-mob-dev" viewBox="0 0 32 32">
      <path fill="#fff" d="M17.274 1.421H6.452a2.163 2.163 0 0 0-2.163 2.163v24.707c0 1.195.968 2.163 2.163 2.163h10.822a2.163 2.163 0 0 0 2.163-2.163V3.584a2.162 2.162 0 0 0-2.163-2.163z" style="fill:var(--color1, #fff)"/>
      <path fill="#202020" d="M17.28 30.934H6.451a2.648 2.648 0 0 1-2.643-2.643V3.587A2.647 2.647 0 0 1 6.451.941H17.28a2.65 2.65 0 0 1 2.643 2.646v24.704a2.648 2.648 0 0 1-2.643 2.643zM6.451 1.901a1.685 1.685 0 0 0-1.683 1.686v24.704a1.684 1.684 0 0 0 1.683 1.683H17.28a1.684 1.684 0 0 0 1.683-1.683V3.587a1.683 1.683 0 0 0-1.683-1.686H6.451z" style="fill:var(--color3, #202020)"/>
      <path fill="#202020" d="M14.006 4.189H9.718a2.083 2.083 0 0 1-2.077-2.077V.941h8.442v1.171a2.083 2.083 0 0 1-2.077 2.077zM8.602 1.901v.211a1.12 1.12 0 0 0 1.117 1.117h4.288a1.12 1.12 0 0 0 1.117-1.117v-.211H8.602z" style="fill:var(--color3, #202020)"/>
      <path fill="#ff3839" d="M17.504 6.528H6.221a.48.48 0 0 1 0-.96h11.283a.48.48 0 0 1 0 .96zm0 1.741H6.221a.48.48 0 0 1 0-.96h11.283a.48.48 0 0 1 0 .96zm0 1.721h-4.256a.48.48 0 0 1 0-.96h4.256a.48.48 0 0 1 0 .96z" style="fill:var(--color2, #ff3839)"/>
      <path fill="#fff" d="M29.456 21.437h-4.157c-.576 0-1.043.467-1.043 1.043v.269c0 .576.467 1.043 1.043 1.043h4.157c.576 0 1.043-.467 1.043-1.043v-.269c0-.576-.467-1.043-1.043-1.043z" style="fill:var(--color1, #fff)"/>
      <path fill="#202020" d="M29.44 24.272h-4.16a1.526 1.526 0 0 1-1.523-1.526v-.266a1.522 1.522 0 0 1 1.523-1.523h4.16a1.527 1.527 0 0 1 1.523 1.523v.266a1.524 1.524 0 0 1-1.523 1.526zm-4.16-2.355a.56.56 0 0 0-.563.563v.266a.563.563 0 0 0 .563.566h4.16a.565.565 0 0 0 .563-.566v-.266a.56.56 0 0 0-.563-.563h-4.16z" style="fill:var(--color3, #202020)"/>
      <path fill="#fff" d="M29.456 15.152h-4.157c-.576 0-1.043.467-1.043 1.043v.269c0 .576.467 1.043 1.043 1.043h4.157c.576 0 1.043-.467 1.043-1.043v-.269c0-.576-.467-1.043-1.043-1.043z" style="fill:var(--color1, #fff)"/>
      <path fill="#202020" d="M29.44 17.987h-4.16a1.526 1.526 0 0 1-1.523-1.526v-.266a1.522 1.522 0 0 1 1.523-1.523h4.16a1.527 1.527 0 0 1 1.523 1.523v.266a1.524 1.524 0 0 1-1.523 1.526zm-4.16-2.355a.56.56 0 0 0-.563.563v.266a.57.57 0 0 0 .347.523.552.552 0 0 0 .216.043h4.16a.57.57 0 0 0 .399-.166.569.569 0 0 0 .164-.4v-.266a.56.56 0 0 0-.563-.563h-4.16z" style="fill:var(--color3, #202020)"/>
      <path fill="#fff" d="M29.456 10.784h-4.157c-.576 0-1.043.467-1.043 1.043v.269c0 .576.467 1.043 1.043 1.043h4.157c.576 0 1.043-.467 1.043-1.043v-.269c0-.576-.467-1.043-1.043-1.043z" style="fill:var(--color1, #fff)"/>
      <path fill="#202020" d="M29.44 13.619h-4.16a1.526 1.526 0 0 1-1.523-1.526v-.253a1.522 1.522 0 0 1 1.523-1.523h4.16a1.528 1.528 0 0 1 1.536 1.522v.266a1.523 1.523 0 0 1-1.536 1.513zm-4.16-2.355a.56.56 0 0 0-.544.576v.266a.563.563 0 0 0 .563.566h4.141a.565.565 0 0 0 .563-.566v-.266a.571.571 0 0 0-.16-.407.551.551 0 0 0-.402-.169h-4.16zM20.227 27.84h-2.723v-.96h2.723a.689.689 0 0 0 .685-.685v-2.419a1.643 1.643 0 0 1 1.642-1.642h1.702v.96h-1.702a.686.686 0 0 0-.682.682v2.41a1.65 1.65 0 0 1-1.013 1.527 1.65 1.65 0 0 1-.631.127zm-4.582-1.667h-.96v-8.682a1.648 1.648 0 0 1 1.635-1.642h7.936v.96H16.32a.687.687 0 0 0-.685.681l.01 8.682z" style="fill:var(--color3, #202020)"/>
      <path fill="#202020" d="M12.342 26.173h-.96V13.12a1.647 1.647 0 0 1 1.645-1.642h11.229v.96H13.027a.687.687 0 0 0-.685.681v13.053z" style="fill:var(--color3, #202020)"/>
      <path fill="#fff" d="M16.461 26.173H7.264c-.576 0-1.043.467-1.043 1.043v.269c0 .576.467 1.043 1.043 1.043h9.197c.576 0 1.043-.467 1.043-1.043v-.269c0-.576-.467-1.043-1.043-1.043z" style="fill:var(--color1, #fff)"/>
      <path fill="#ff3839" d="M16.458 29.008H7.264a1.526 1.526 0 0 1-1.523-1.526v-.266a1.527 1.527 0 0 1 1.523-1.523h9.194a1.524 1.524 0 0 1 1.526 1.523v.266a1.529 1.529 0 0 1-1.526 1.526zm-9.194-2.355a.56.56 0 0 0-.563.563v.266a.563.563 0 0 0 .563.566h9.194a.579.579 0 0 0 .401-.166.571.571 0 0 0 .166-.401v-.266a.57.57 0 0 0-.166-.399.569.569 0 0 0-.4-.164H7.265z" style="fill:var(--color2, #ff3839)"/>
    </symbol>
    <symbol id="icon-ux-ui" viewBox="0 0 32 32">
      <path fill="#fff" d="M29.127 4.195H3.015a.72.72 0 0 0-.72.72v22.168c0 .398.323.72.72.72h26.112a.72.72 0 0 0 .72-.72V4.915a.72.72 0 0 0-.72-.72z" style="fill:var(--color1, #fff)"/>
      <path fill="#202020" d="M29.12 28.285H3.017a1.206 1.206 0 0 1-1.203-1.203V4.918c.003-.663.54-1.2 1.203-1.202h26.102c.663.002 1.2.54 1.2 1.203v22.164c0 .663-.537 1.201-1.2 1.203zM3.017 4.675a.243.243 0 0 0-.243.243v22.164c0 .134.109.243.244.243H29.12a.243.243 0 0 0 .24-.243V4.917a.243.243 0 0 0-.239-.243H3.018z" style="fill:var(--color3, #202020)"/>
      <path fill="#ff3839" d="M5.081 6.797a.586.586 0 1 0 0-1.172.586.586 0 1 0 0 1.172zm1.998 0a.586.586 0 1 0 0-1.172.586.586 0 1 0 0 1.172zm1.993 0a.586.586 0 1 0 0-1.172.586.586 0 1 0 0 1.172zm17.939-.106h-5.44a.48.48 0 0 1 0-.96h5.44a.48.48 0 0 1 0 .96z" style="fill:var(--color2, #ff3839)"/>
      <path fill="#202020" d="M29.846 7.536H2.294v.96h27.553v-.96z" style="fill:var(--color3, #202020)"/>
      <path fill="#fff" d="M27.814 9.789H4.291a.287.287 0 0 0-.287.287v2.906c0 .159.129.287.287.287h23.524a.287.287 0 0 0 .287-.287v-2.906a.287.287 0 0 0-.288-.287z" style="fill:var(--color1, #fff)"/>
      <path fill="#202020" d="M27.814 13.587H4.291a.607.607 0 0 1-.607-.607v-2.903c0-.335.272-.607.607-.607h23.523a.612.612 0 0 1 .609.607v2.902a.612.612 0 0 1-.608.608zm-23.491-.64h23.459v-2.838H4.323v2.838z" style="fill:var(--color3, #202020)"/>
      <path fill="#fff" d="M27.811 15.283h-8.564a.288.288 0 0 0-.288.288v10.337c0 .159.129.287.287.287h8.564a.287.287 0 0 0 .287-.287V15.571a.287.287 0 0 0-.287-.287z" style="fill:var(--color1, #fff)"/>
      <path fill="#202020" d="M27.814 26.515h-8.562a.611.611 0 0 1-.611-.594v-10.35a.61.61 0 0 1 .611-.607h8.564a.61.61 0 0 1 .607.607V25.92a.611.611 0 0 1-.607.595zm-8.534-.64h8.503V15.603H19.28v10.273z" style="fill:var(--color3, #202020)"/>
      <path fill="#fff" d="M16.515 23.533H7.951a.287.287 0 0 0-.287.287v1.544c0 .159.129.287.287.287h8.564a.287.287 0 0 0 .287-.287v-1.543a.287.287 0 0 0-.287-.287z" style="fill:var(--color1, #fff)"/>
      <path fill="#202020" d="M16.519 25.968H7.953a.612.612 0 0 1-.608-.608v-1.539a.611.611 0 0 1 .607-.608h8.567a.61.61 0 0 1 .607.607v1.54a.61.61 0 0 1-.607.607zM8 25.328h8.487v-1.476H8v1.476z" style="fill:var(--color3, #202020)"/>
      <path fill="#ff3839" d="M16.807 16.842h-5.44a.48.48 0 0 1 0-.96h5.44a.48.48 0 0 1 0 .96zm0 1.903H5.523a.32.32 0 1 1 0-.64h11.284a.32.32 0 1 1 0 .64zm0 1.466H5.523a.32.32 0 1 1 0-.64h11.284a.32.32 0 1 1 0 .64zm0 1.424h-8.32a.32.32 0 1 1 0-.64h8.32a.32.32 0 1 1 0 .64z" style="fill:var(--color2, #ff3839)"/>
      <path fill="#202020" d="m27.52 15.22-8.36 10.495.5.398 8.361-10.495-.501-.398z" style="fill:var(--color3, #202020)"/>
      <path fill="#202020" d="m19.448 15.379-.495.406 8.558 10.418.494-.406-8.557-10.418zm8.663-5.446L3.714 12.786l.037.318 24.397-2.853-.037-.317z" style="fill:var(--color3, #202020)"/>
      <path fill="#202020" d="m3.75 9.94-.037.318 24.398 2.845.037-.318L3.75 9.941z" style="fill:var(--color3, #202020)"/>
    </symbol>
    <symbol id="icon-vector" viewBox="0 0 32 32">
      <path d="M32 3.223 28.777 0 16 12.777 3.223 0 0 3.223 12.777 16 0 28.777 3.223 32 16 19.223 28.777 32 32 28.777 19.223 16 32 3.223z"/>
    </symbol>
    <symbol id="icon-check" viewBox="0 0 40 32">
      <path d="M33.782 1.02a3.668 3.668 0 0 1 5.115.039 3.712 3.712 0 0 1 .135 5.141L19.454 30.817a3.674 3.674 0 0 1-4.074.914 3.675 3.675 0 0 1-1.226-.815L1.17 17.862A3.693 3.693 0 0 1-.001 15.22a3.714 3.714 0 0 1 1.077-2.682 3.664 3.664 0 0 1 4.1-.763 3.68 3.68 0 0 1 1.195.857l10.275 10.325 17.042-21.83c.031-.038.063-.074.098-.109h-.005z"/>
    </symbol>
    <symbol id="icon-email-black-18dp-1" viewBox="0 0 24 32">
      <path d="M20 8H4c-1.1 0-1.99.9-1.99 2L2 22c0 1.1.9 2 2 2h16c1.1 0 2-.9 2-2V10c0-1.1-.9-2-2-2zm-.4 4.25-7.07 4.42c-.32.2-.74.2-1.06 0L4.4 12.25a.85.85 0 1 1 .9-1.44L12 15l6.7-4.19a.85.85 0 1 1 .9 1.44z"/>
    </symbol>
    <symbol id="icon-person-black-18dp-1" viewBox="0 0 32 32">
      <path d="M16 16c2.947 0 5.333-2.387 5.333-5.333S18.946 5.334 16 5.334c-2.947 0-5.333 2.387-5.333 5.333S13.054 16 16 16zm0 2.667c-3.56 0-10.667 1.787-10.667 5.333v1.333c0 .733.6 1.333 1.333 1.333h18.667c.733 0 1.333-.6 1.333-1.333V24c0-3.547-7.107-5.333-10.667-5.333z"/>
    </symbol>
    <symbol id="icon-phone-black-18dp-1" viewBox="0 0 24 32">
      <path d="m19.635 18.487-2.451-.28a1.92 1.92 0 0 0-1.582.55l-1.775 1.775a14.514 14.514 0 0 1-6.359-6.359l1.785-1.785c.415-.415.618-.994.55-1.582l-.28-2.432a1.931 1.931 0 0 0-1.92-1.708H5.934c-1.09 0-1.997.907-1.93 1.997.511 8.24 7.102 14.821 15.332 15.332 1.09.068 1.997-.839 1.997-1.93v-1.669a1.913 1.913 0 0 0-1.698-1.911z"/>
    </symbol>
  </defs>
  </svg>
