<svg width="49" height="49" viewBox="0 0 49 49" fill="none" xmlns="http://www.w3.org/2000/svg">
<g clip-path="url(#clip0_228_183)">
<path d="M35.0693 31.0415C36.8057 32.6539 38.1973 34.6016 39.1599 36.7668C40.1226 38.9321 40.6363 41.27 40.67 43.6394C40.6696 43.9799 40.5723 44.3133 40.3894 44.6005C40.2065 44.8878 39.9456 45.117 39.6372 45.2614C39.3288 45.4059 38.9857 45.4595 38.648 45.4161C38.3102 45.3727 37.9918 45.234 37.73 45.0163L30.87 39.2" fill="white"/>
<path d="M38.8472 46.1873C38.2437 46.1853 37.661 45.9661 37.2057 45.5699L30.38 39.734L31.36 38.6168L38.1612 44.4576C38.315 44.5919 38.5044 44.6787 38.7065 44.7078C38.9085 44.7368 39.1147 44.7068 39.3001 44.6214C39.4855 44.5359 39.6422 44.3987 39.7514 44.2262C39.8606 44.0537 39.9175 43.8533 39.9154 43.6491C39.8869 41.3801 39.3979 39.1404 38.4781 37.0659C37.5584 34.9913 36.227 33.1252 34.5646 31.5804L35.5446 30.5024C37.3546 32.1782 38.8055 34.204 39.8095 36.4571C40.8135 38.7101 41.3496 41.1436 41.3854 43.6099C41.392 44.0973 41.2565 44.576 40.9954 44.9876C40.7344 45.3992 40.3591 45.7259 39.9154 45.9276C39.582 46.0896 39.2177 46.1781 38.8472 46.1873Z" fill="#FF3839"/>
<path d="M13.23 31.0415C10.9011 33.2287 9.20786 36.0056 8.32999 39.0775C7.90775 40.562 7.68529 42.0961 7.66849 43.6394C7.66888 43.9799 7.76622 44.3133 7.94911 44.6005C8.132 44.8878 8.39288 45.117 8.70126 45.2614C9.00964 45.4059 9.35276 45.4595 9.6905 45.4161C10.0282 45.3727 10.3467 45.234 10.6085 45.0163L17.4391 39.2" fill="white"/>
<path d="M9.47171 46.1873C9.09753 46.1875 8.72787 46.1055 8.38881 45.9472C7.94436 45.7465 7.56836 45.4201 7.30716 45.0083C7.04595 44.5964 6.91096 44.1172 6.91881 43.6295C6.94944 41.1613 7.48122 38.725 8.48188 36.4684C9.48254 34.2119 10.9312 32.1822 12.74 30.5024L13.7445 31.5804C11.5011 33.6689 9.8711 36.3308 9.03071 39.2783C8.62493 40.7005 8.41071 42.1704 8.39371 43.6491C8.39242 43.8524 8.44966 44.0517 8.5586 44.2232C8.66754 44.3948 8.82357 44.5314 9.00805 44.6166C9.19252 44.7019 9.39765 44.7322 9.59891 44.704C9.80017 44.6758 9.98906 44.5903 10.143 44.4576L16.9589 38.6168L17.9389 39.734L11.1132 45.5699C10.6579 45.9661 10.0753 46.1853 9.47171 46.1873Z" fill="#FF3839"/>
<path d="M29.7724 39.2H18.5465C17.4256 39.199 16.3433 38.7911 15.5006 38.052C14.6579 37.313 14.1122 36.2931 13.965 35.182L13.2839 29.9292C12.1178 21.4374 14.1412 12.8147 18.963 5.72808C19.1394 5.47328 19.3207 5.23808 19.502 4.96858L21.3689 2.41568C21.6863 1.97163 22.105 1.60972 22.5904 1.36004C23.0757 1.11036 23.6136 0.980103 24.1594 0.980103C24.7052 0.980103 25.2432 1.11036 25.7285 1.36004C26.2139 1.60972 26.6326 1.97163 26.95 2.41568L28.8169 4.96858C28.9982 5.21848 29.1795 5.45858 29.3559 5.72808C34.1729 12.8168 36.1959 21.4376 35.035 29.9292L34.349 35.1575C34.2093 36.2731 33.6673 37.2994 32.8247 38.0437C31.982 38.788 30.8967 39.1991 29.7724 39.2Z" fill="white"/>
<path d="M29.7724 39.9105H18.5465C17.2458 39.9109 15.9893 39.4385 15.0112 38.5812C14.0331 37.7238 13.4 36.5401 13.23 35.2506L12.544 30.0223C11.3516 21.3476 13.4244 12.5392 18.3603 5.30669C18.5367 5.04699 18.7229 4.78729 18.9091 4.5325L20.7711 1.96C21.1605 1.42739 21.6701 0.99416 22.2584 0.69551C22.8467 0.396859 23.4972 0.241211 24.157 0.241211C24.8168 0.241211 25.4673 0.396859 26.0556 0.69551C26.6439 0.99416 27.1535 1.42739 27.5429 1.96L29.4 4.5325C29.5862 4.78729 29.7675 5.04699 29.9488 5.30669C34.8864 12.5386 36.961 21.347 35.77 30.0223L35.084 35.2506C34.9141 36.5393 34.2817 37.7223 33.3046 38.5795C32.3275 39.4368 31.0722 39.9098 29.7724 39.9105ZM24.157 1.7297C23.7285 1.72725 23.3056 1.82739 22.9237 2.02174C22.5418 2.2161 22.212 2.49903 21.9618 2.8469L20.09 5.39L19.5608 6.1348C14.8367 13.0722 12.8598 21.5178 14.014 29.8312L14.7 35.0595C14.8235 35.994 15.282 36.8519 15.9904 37.4737C16.6987 38.0956 17.6088 38.4391 18.5514 38.4405H29.7724C30.7133 38.433 31.62 38.0873 32.3271 37.4665C33.0342 36.8458 33.4944 35.9915 33.6238 35.0595L34.3 29.8312C35.4498 21.5204 33.4712 13.0789 28.7483 6.14459C28.5768 5.89469 28.4004 5.65459 28.224 5.3998L26.3571 2.8469C26.1058 2.49894 25.7751 2.21603 25.3924 2.02171C25.0097 1.82739 24.5862 1.72727 24.157 1.7297Z" fill="#202020"/>
<path d="M24.157 24.2599C22.8501 24.2599 21.5725 23.8724 20.4856 23.1466C19.3988 22.4207 18.5516 21.3889 18.051 20.1816C17.5504 18.9743 17.4189 17.6458 17.6732 16.3638C17.9275 15.0818 18.556 13.904 19.4795 12.9792C20.403 12.0544 21.5799 11.424 22.8614 11.1679C24.143 10.9117 25.4718 11.0412 26.6798 11.54C27.8878 12.0388 28.9208 12.8845 29.6483 13.9703C30.3758 15.056 30.7652 16.333 30.7671 17.64C30.7671 19.394 30.071 21.0763 28.8316 22.3175C27.5923 23.5587 25.911 24.2573 24.157 24.2599ZM24.157 12.4999C23.1404 12.4999 22.1466 12.8013 21.3013 13.3661C20.456 13.9309 19.7972 14.7337 19.4082 15.6729C19.0191 16.6122 18.9173 17.6457 19.1157 18.6428C19.314 19.6398 19.8035 20.5557 20.5224 21.2746C21.2413 21.9934 22.1571 22.483 23.1542 22.6813C24.1513 22.8796 25.1848 22.7779 26.124 22.3888C27.0633 21.9998 27.866 21.3409 28.4308 20.4957C28.9956 19.6504 29.2971 18.6566 29.2971 17.64C29.2945 16.2784 28.7518 14.9735 27.7881 14.0117C26.8245 13.0499 25.5185 12.5097 24.157 12.5097V12.4999Z" fill="#FF3839"/>
<path d="M24.157 46.7215C23.9621 46.7215 23.7751 46.6441 23.6373 46.5063C23.4994 46.3684 23.422 46.1815 23.422 45.9865V41.2335C23.422 41.0386 23.4994 40.8517 23.6373 40.7138C23.7751 40.576 23.9621 40.4985 24.157 40.4985C24.3519 40.4985 24.5389 40.576 24.6767 40.7138C24.8146 40.8517 24.892 41.0386 24.892 41.2335V45.9865C24.892 46.1815 24.8146 46.3684 24.6767 46.5063C24.5389 46.6441 24.3519 46.7215 24.157 46.7215Z" fill="#FF3839"/>
<path d="M20.727 48.5541C20.5321 48.5541 20.3451 48.4767 20.2073 48.3388C20.0694 48.201 19.992 48.014 19.992 47.8191V43.61C19.992 43.4151 20.0694 43.2281 20.2073 43.0903C20.3451 42.9524 20.5321 42.875 20.727 42.875C20.9219 42.875 21.1089 42.9524 21.2467 43.0903C21.3846 43.2281 21.462 43.4151 21.462 43.61V47.8338C21.4582 48.0262 21.379 48.2094 21.2416 48.344C21.1042 48.4787 20.9194 48.5541 20.727 48.5541Z" fill="#FF3839"/>
<path d="M27.587 48.5541C27.3921 48.5541 27.2051 48.4767 27.0673 48.3388C26.9294 48.201 26.852 48.014 26.852 47.8191V43.61C26.852 43.4151 26.9294 43.2281 27.0673 43.0903C27.2051 42.9524 27.3921 42.875 27.587 42.875C27.7819 42.875 27.9689 42.9524 28.1067 43.0903C28.2446 43.2281 28.322 43.4151 28.322 43.61V47.8338C28.3181 48.0262 28.239 48.2094 28.1016 48.344C27.9642 48.4787 27.7794 48.5541 27.587 48.5541Z" fill="#FF3839"/>
</g>
<defs>
<clipPath id="clip0_228_183">
<rect width="49" height="49" fill="white"/>
</clipPath>
</defs>
</svg>
