<svg width="49" height="49" viewBox="0 0 49 49" fill="none" xmlns="http://www.w3.org/2000/svg">
<g clip-path="url(#clip0_228_160)">
<path d="M26.4502 2.17566H9.87839C8.04901 2.17566 6.56599 3.65867 6.56599 5.48806V43.321C6.56599 45.1503 8.04901 46.6334 9.87839 46.6334H26.4502C28.2796 46.6334 29.7626 45.1503 29.7626 43.321V5.48806C29.7626 3.65867 28.2796 2.17566 26.4502 2.17566Z" fill="white"/>
<path d="M26.46 47.3683H9.87839C8.80535 47.367 7.77664 46.9401 7.01788 46.1814C6.25913 45.4226 5.83229 44.3939 5.83099 43.3209V5.49285C5.83229 4.41936 6.25897 3.39014 7.01758 2.6306C7.7762 1.87107 8.8049 1.44314 9.87839 1.44055H26.46C27.5335 1.44314 28.5622 1.87107 29.3208 2.6306C30.0794 3.39014 30.5061 4.41936 30.5074 5.49285V43.3209C30.5061 44.3939 30.0793 45.4226 29.3205 46.1814C28.5618 46.9401 27.533 47.367 26.46 47.3683ZM9.87839 2.91055C9.19437 2.91185 8.53881 3.18449 8.0556 3.66862C7.57238 4.15275 7.30099 4.80883 7.30099 5.49285V43.3209C7.30229 44.004 7.57425 44.6588 8.05733 45.1419C8.5404 45.625 9.19522 45.897 9.87839 45.8983H26.46C27.1432 45.897 27.798 45.625 28.2811 45.1419C28.7641 44.6588 29.0361 44.004 29.0374 43.3209V5.49285C29.0374 4.80883 28.766 4.15275 28.2828 3.66862C27.7996 3.18449 27.144 2.91185 26.46 2.91055H9.87839Z" fill="#202020"/>
<path d="M21.4473 6.41405H14.8813C14.0383 6.41276 13.2302 6.07729 12.6341 5.48119C12.038 4.88509 11.7025 4.07697 11.7012 3.23395V1.44055H24.6274V3.23395C24.6261 4.07697 24.2906 4.88509 23.6945 5.48119C23.0984 6.07729 22.2903 6.41276 21.4473 6.41405ZM13.1712 2.91055V3.23395C13.1712 3.6875 13.3514 4.12247 13.6721 4.44318C13.9928 4.76388 14.4278 4.94405 14.8813 4.94405H21.4473C21.9008 4.94405 22.3358 4.76388 22.6565 4.44318C22.9772 4.12247 23.1574 3.6875 23.1574 3.23395V2.91055H13.1712Z" fill="#202020"/>
<path d="M26.803 9.996H9.5256C9.33067 9.996 9.14372 9.91856 9.00588 9.78073C8.86804 9.64289 8.7906 9.45594 8.7906 9.261C8.7906 9.06607 8.86804 8.87912 9.00588 8.74128C9.14372 8.60344 9.33067 8.526 9.5256 8.526H26.803C26.9979 8.526 27.1849 8.60344 27.3227 8.74128C27.4606 8.87912 27.538 9.06607 27.538 9.261C27.538 9.45594 27.4606 9.64289 27.3227 9.78073C27.1849 9.91856 26.9979 9.996 26.803 9.996Z" fill="#FF3839"/>
<path d="M26.803 12.6617H9.5256C9.33067 12.6617 9.14372 12.5842 9.00588 12.4464C8.86804 12.3085 8.7906 12.1216 8.7906 11.9267C8.7906 11.7317 8.86804 11.5448 9.00588 11.4069C9.14372 11.2691 9.33067 11.1917 9.5256 11.1917H26.803C26.9979 11.1917 27.1849 11.2691 27.3227 11.4069C27.4606 11.5448 27.538 11.7317 27.538 11.9267C27.538 12.1216 27.4606 12.3085 27.3227 12.4464C27.1849 12.5842 26.9979 12.6617 26.803 12.6617Z" fill="#FF3839"/>
<path d="M26.803 15.2978H20.286C20.0911 15.2978 19.9041 15.2203 19.7663 15.0825C19.6284 14.9446 19.551 14.7577 19.551 14.5628C19.551 14.3678 19.6284 14.1809 19.7663 14.043C19.9041 13.9052 20.0911 13.8278 20.286 13.8278H26.803C26.9979 13.8278 27.1849 13.9052 27.3227 14.043C27.4606 14.1809 27.538 14.3678 27.538 14.5628C27.538 14.7577 27.4606 14.9446 27.3227 15.0825C27.1849 15.2203 26.9979 15.2978 26.803 15.2978Z" fill="#FF3839"/>
<path d="M45.1045 32.8251H38.7394C37.8572 32.8251 37.142 33.5403 37.142 34.4225V34.8341C37.142 35.7163 37.8572 36.4315 38.7394 36.4315H45.1045C45.9867 36.4315 46.7019 35.7163 46.7019 34.8341V34.4225C46.7019 33.5403 45.9867 32.8251 45.1045 32.8251Z" fill="white"/>
<path d="M45.08 37.1665H38.71C38.091 37.1652 37.4977 36.9184 37.0604 36.4802C36.6232 36.042 36.3776 35.4482 36.3776 34.8292V34.4225C36.3776 33.8039 36.6233 33.2106 37.0607 32.7732C37.4981 32.3358 38.0914 32.0901 38.71 32.0901H45.08C45.6982 32.0914 46.2907 32.3375 46.7278 32.7747C47.1649 33.2118 47.4111 33.8043 47.4124 34.4225V34.8292C47.4124 35.4482 47.1668 36.042 46.7296 36.4802C46.2923 36.9184 45.699 37.1652 45.08 37.1665ZM38.71 33.5601C38.4813 33.5601 38.2619 33.6509 38.1002 33.8127C37.9385 33.9744 37.8476 34.1938 37.8476 34.4225V34.8292C37.8476 35.0584 37.9383 35.2782 38.0999 35.4407C38.2615 35.6032 38.4808 35.6952 38.71 35.6965H45.08C45.3092 35.6952 45.5285 35.6032 45.6901 35.4407C45.8517 35.2782 45.9424 35.0584 45.9424 34.8292V34.4225C45.9424 34.1938 45.8515 33.9744 45.6898 33.8127C45.5281 33.6509 45.3087 33.5601 45.08 33.5601H38.71Z" fill="#202020"/>
<path d="M45.1045 23.2015H38.7394C37.8572 23.2015 37.142 23.9167 37.142 24.7989V25.2105C37.142 26.0928 37.8572 26.8079 38.7394 26.8079H45.1045C45.9867 26.8079 46.7019 26.0928 46.7019 25.2105V24.7989C46.7019 23.9167 45.9867 23.2015 45.1045 23.2015Z" fill="white"/>
<path d="M45.08 27.543H38.71C38.091 27.5417 37.4977 27.2948 37.0604 26.8566C36.6232 26.4185 36.3776 25.8247 36.3776 25.2057V24.799C36.3776 24.1804 36.6233 23.5871 37.0607 23.1497C37.4981 22.7123 38.0914 22.4666 38.71 22.4666H45.08C45.6982 22.4678 46.2907 22.714 46.7278 23.1511C47.1649 23.5883 47.4111 24.1808 47.4124 24.799V25.2057C47.4124 25.8247 47.1668 26.4185 46.7296 26.8566C46.2923 27.2948 45.699 27.5417 45.08 27.543ZM38.71 23.9366C38.4813 23.9366 38.2619 24.0274 38.1002 24.1891C37.9385 24.3509 37.8476 24.5702 37.8476 24.799V25.2057C37.8469 25.3193 37.8688 25.432 37.9118 25.5372C37.9549 25.6424 38.0183 25.738 38.0984 25.8186C38.1786 25.8992 38.2739 25.9632 38.3788 26.0068C38.4838 26.0505 38.5963 26.073 38.71 26.073H45.08C45.1937 26.073 45.3062 26.0505 45.4112 26.0068C45.5161 25.9632 45.6114 25.8992 45.6915 25.8186C45.7717 25.738 45.8351 25.6424 45.8782 25.5372C45.9212 25.432 45.943 25.3193 45.9424 25.2057V24.799C45.9424 24.5702 45.8515 24.3509 45.6898 24.1891C45.5281 24.0274 45.3087 23.9366 45.08 23.9366H38.71Z" fill="#202020"/>
<path d="M45.1045 16.5129H38.7394C37.8572 16.5129 37.142 17.2281 37.142 18.1103V18.5219C37.142 19.4042 37.8572 20.1193 38.7394 20.1193H45.1045C45.9867 20.1193 46.7019 19.4042 46.7019 18.5219V18.1103C46.7019 17.2281 45.9867 16.5129 45.1045 16.5129Z" fill="white"/>
<path d="M45.08 20.8545H38.71C38.091 20.8532 37.4977 20.6063 37.0604 20.1681C36.6232 19.73 36.3776 19.1362 36.3776 18.5172V18.1301C36.3776 17.5115 36.6233 16.9182 37.0607 16.4808C37.4981 16.0434 38.0914 15.7977 38.71 15.7977H45.08C45.3878 15.7957 45.6929 15.8546 45.9778 15.9709C46.2628 16.0872 46.522 16.2586 46.7405 16.4753C46.959 16.692 47.1326 16.9497 47.2513 17.2337C47.3699 17.5177 47.4314 17.8223 47.432 18.1301V18.5368C47.4268 19.1558 47.1763 19.7475 46.7353 20.182C46.2944 20.6165 45.699 20.8584 45.08 20.8545ZM38.71 17.2481C38.483 17.2557 38.2682 17.3527 38.1122 17.5178C37.9562 17.683 37.8717 17.903 37.877 18.1301V18.5368C37.877 18.7659 37.9677 18.9858 38.1293 19.1483C38.2909 19.3108 38.5102 19.4028 38.7394 19.4041H45.08C45.3092 19.4028 45.5285 19.3108 45.6901 19.1483C45.8517 18.9858 45.9424 18.7659 45.9424 18.5368V18.1301C45.945 18.0152 45.9246 17.9009 45.8825 17.794C45.8403 17.6871 45.7772 17.5897 45.6968 17.5075C45.6165 17.4254 45.5205 17.3601 45.4146 17.3155C45.3087 17.271 45.1949 17.248 45.08 17.2481H38.71Z" fill="#202020"/>
<path d="M30.9729 42.63H26.803V41.16H30.9729C31.251 41.16 31.5177 41.0495 31.7144 40.8529C31.911 40.6562 32.0215 40.3895 32.0215 40.1114V36.407C32.0215 35.7403 32.2863 35.101 32.7577 34.6296C33.2291 34.1581 33.8685 33.8933 34.5352 33.8933H37.142V35.3633H34.5352C34.2588 35.3646 33.9941 35.475 33.7986 35.6704C33.6032 35.8659 33.4928 36.1306 33.4915 36.407V40.0967C33.4928 40.4285 33.4286 40.7573 33.3027 41.0643C33.1768 41.3713 32.9915 41.6504 32.7576 41.8857C32.5236 42.121 32.2456 42.3079 31.9394 42.4356C31.6331 42.5633 31.3047 42.6294 30.9729 42.63Z" fill="#202020"/>
<path d="M23.9561 40.0771H22.4861V26.7834C22.4874 26.1188 22.7513 25.4816 23.2203 25.0108C23.6893 24.5399 24.3254 24.2735 24.99 24.2697H37.142V25.7397H24.99C24.7127 25.7397 24.4468 25.8495 24.2503 26.045C24.0537 26.2406 23.9427 26.5061 23.9414 26.7834L23.9561 40.0771Z" fill="#202020"/>
<path d="M18.8993 40.0771H17.4293V20.09C17.4306 19.4229 17.6965 18.7835 18.1687 18.3122C18.6409 17.841 19.2808 17.5763 19.9479 17.5763H37.142V19.0463H19.9479C19.6706 19.0463 19.4047 19.1561 19.2081 19.3517C19.0116 19.5473 18.9006 19.8127 18.8993 20.09V40.0771Z" fill="#202020"/>
<path d="M25.2056 40.0771H11.123C10.2408 40.0771 9.5256 40.7923 9.5256 41.6745V42.0861C9.5256 42.9684 10.2408 43.6835 11.123 43.6835H25.2056C26.0878 43.6835 26.803 42.9684 26.803 42.0861V41.6745C26.803 40.7923 26.0878 40.0771 25.2056 40.0771Z" fill="white"/>
<path d="M25.2007 44.4184H11.123C10.504 44.4171 9.91072 44.1703 9.47345 43.7321C9.03618 43.2939 8.7906 42.7002 8.7906 42.0811V41.6744C8.7919 41.0562 9.03805 40.4637 9.47518 40.0266C9.91231 39.5895 10.5048 39.3433 11.123 39.342H25.2007C25.8197 39.342 26.4135 39.5876 26.8517 40.0249C27.2899 40.4622 27.5367 41.0554 27.538 41.6744V42.0811C27.5367 42.7006 27.29 43.2944 26.852 43.7324C26.4139 44.1705 25.8202 44.4171 25.2007 44.4184ZM11.123 40.812C10.8943 40.812 10.6749 40.9029 10.5132 41.0646C10.3515 41.2264 10.2606 41.4457 10.2606 41.6744V42.0811C10.2606 42.3103 10.3513 42.5302 10.5129 42.6927C10.6745 42.8552 10.8938 42.9471 11.123 42.9484H25.2007C25.3146 42.9484 25.4274 42.926 25.5326 42.8824C25.6378 42.8388 25.7334 42.7749 25.814 42.6944C25.8945 42.6139 25.9584 42.5183 26.002 42.413C26.0456 42.3078 26.068 42.195 26.068 42.0811V41.6744C26.068 41.5608 26.0455 41.4482 26.0019 41.3433C25.9582 41.2383 25.8943 41.143 25.8137 41.0629C25.7331 40.9827 25.6374 40.9193 25.5322 40.8763C25.427 40.8332 25.3144 40.8114 25.2007 40.812H11.123Z" fill="#FF3839"/>
</g>
<defs>
<clipPath id="clip0_228_160">
<rect width="49" height="49" fill="white"/>
</clipPath>
</defs>
</svg>
