<svg xmlns="http://www.w3.org/2000/svg" width="49" height="49" fill="none">
  <g clip-path="url(#a)">
    <path fill="#fff" d="M44.6 6.424H4.616c-.61 0-1.103.494-1.103 1.102V41.47c0 .609.494 1.102 1.103 1.102H44.6c.609 0 1.102-.493 1.102-1.102V7.526c0-.608-.493-1.102-1.102-1.102Z"/>
    <path fill="#202020" d="M44.59 43.311H4.62a1.847 1.847 0 0 1-1.842-1.842V7.53A1.847 1.847 0 0 1 4.621 5.69H44.59a1.842 1.842 0 0 1 1.837 1.842V41.47a1.842 1.842 0 0 1-1.837 1.842ZM4.62 7.159a.372.372 0 0 0-.372.372V41.47a.373.373 0 0 0 .373.372H44.59a.372.372 0 0 0 .367-.372V7.53a.373.373 0 0 0-.367-.372H4.62Z"/>
    <path fill="#FF3839" d="M7.781 10.408a.897.897 0 1 0 0-1.794.897.897 0 0 0 0 1.794ZM10.839 10.408a.897.897 0 1 0 0-1.794.897.897 0 0 0 0 1.794ZM13.892 10.408a.897.897 0 1 0 0-1.794.897.897 0 0 0 0 1.794ZM41.36 10.246h-8.33a.735.735 0 0 1 0-1.47h8.33a.735.735 0 0 1 0 1.47Z"/>
    <path fill="#202020" d="M45.702 11.54H3.513v1.47h42.19v-1.47Z"/>
    <path fill="#fff" d="M42.59 14.99H6.57a.441.441 0 0 0-.44.44v4.45c0 .243.197.44.44.44h36.02a.44.44 0 0 0 .442-.44v-4.45a.441.441 0 0 0-.441-.44Z"/>
    <path fill="#202020" d="M42.59 20.805H6.57a.93.93 0 0 1-.93-.93V15.43a.931.931 0 0 1 .93-.93h36.02a.936.936 0 0 1 .932.93v4.444a.936.936 0 0 1-.931.931Zm-35.97-.98h35.922V15.48H6.62v4.346Z"/>
    <path fill="#fff" d="M42.586 23.402H29.474a.441.441 0 0 0-.442.441V39.67a.44.44 0 0 0 .442.441h13.112a.44.44 0 0 0 .44-.44V23.842a.441.441 0 0 0-.44-.44Z"/>
    <path fill="#202020" d="M42.59 40.601H29.479a.937.937 0 0 1-.936-.911V23.843a.936.936 0 0 1 .936-.93h13.113a.935.935 0 0 1 .93.93V39.69a.936.936 0 0 1-.93.911Zm-13.068-.98h13.02V23.892h-13.02v15.73Z"/>
    <path fill="#fff" d="M25.289 36.035H12.176a.441.441 0 0 0-.44.44v2.362a.44.44 0 0 0 .44.441H25.29a.44.44 0 0 0 .44-.44v-2.363a.441.441 0 0 0-.44-.44Z"/>
    <path fill="#202020" d="M25.294 39.764H12.177a.936.936 0 0 1-.931-.931v-2.357a.936.936 0 0 1 .93-.931h13.118a.935.935 0 0 1 .93.93v2.358a.936.936 0 0 1-.93.93Zm-13.044-.98h12.995v-2.26H12.25v2.26Z"/>
    <path fill="#FF3839" d="M25.735 25.789h-8.33a.735.735 0 1 1 0-1.47h8.33a.735.735 0 0 1 0 1.47ZM25.735 28.704H8.457a.49.49 0 1 1 0-.98h17.278a.49.49 0 0 1 0 .98ZM25.735 30.948H8.457a.49.49 0 1 1 0-.98h17.278a.49.49 0 1 1 0 .98ZM25.735 33.129h-12.74a.49.49 0 0 1 0-.98h12.74a.49.49 0 0 1 0 .98Z"/>
    <path fill="#202020" d="m42.14 23.305-12.802 16.07.766.61 12.802-16.07-.767-.61Z"/>
    <path fill="#202020" d="m29.779 23.549-.758.622 13.104 15.952.757-.622-13.103-15.952ZM43.045 15.21 5.687 19.578l.057.487 37.358-4.369-.057-.486Z"/>
    <path fill="#202020" d="m5.742 15.22-.057.487 37.36 4.356.056-.487-37.359-4.355Z"/>
  </g>
  <defs>
    <clipPath id="a">
      <path fill="#fff" d="M0 0h49v49H0z"/>
    </clipPath>
  </defs>
</svg>
